<svg width="416" height="95" viewBox="0 0 416 95" fill="none" xmlns="http://www.w3.org/2000/svg">
<mask id="mask0_925_15" style="mask-type:alpha" maskUnits="userSpaceOnUse" x="0" y="0" width="416" height="95">
<rect width="416" height="95" fill="#D9D9D9"/>
</mask>
<g mask="url(#mask0_925_15)">
<mask id="mask1_925_15" style="mask-type:alpha" maskUnits="userSpaceOnUse" x="-24" y="-35" width="466" height="151">
<rect x="-24" y="-35" width="466" height="151" fill="#D9D9D9"/>
</mask>
<g mask="url(#mask1_925_15)">
<ellipse cx="208.5" cy="77" rx="208.5" ry="76" fill="#FEF200"/>
</g>
<path d="M116.115 55.416V59H113.427C112.701 59 112.168 58.9253 111.827 58.776C111.485 58.6267 111.251 58.3813 111.123 58.04C111.016 57.6773 110.963 57.144 110.963 56.44V55.576C110.195 56.7493 109.245 57.6667 108.115 58.328C106.984 58.9893 105.533 59.32 103.763 59.32C102.035 59.32 100.403 58.8827 98.8665 58.008C97.3519 57.1333 96.1252 55.864 95.1865 54.2C94.2692 52.536 93.8105 50.584 93.8105 48.344C93.8105 45.9333 94.3119 43.9173 95.3145 42.296C96.3172 40.6747 97.6079 39.48 99.1865 38.712C100.787 37.944 102.483 37.56 104.275 37.56C106.152 37.56 107.965 38.0187 109.715 38.936C111.464 39.832 112.712 41.6133 113.459 44.28H109.555C109.235 43.2347 108.648 42.456 107.795 41.944C106.941 41.4107 105.768 41.144 104.275 41.144C102.312 41.144 100.723 41.7733 99.5065 43.032C98.3119 44.2693 97.7145 46.0613 97.7145 48.408C97.7145 50.7547 98.3119 52.568 99.5065 53.848C100.723 55.1067 102.301 55.736 104.243 55.736C106.248 55.736 107.869 55.3093 109.107 54.456C110.344 53.5813 110.963 52.1413 110.963 50.136H104.243V46.552H111.315C112.168 46.552 112.819 46.648 113.267 46.84C113.736 47.0107 114.067 47.32 114.259 47.768C114.451 48.216 114.547 48.8773 114.547 49.752V55.416H116.115Z" fill="black"/>
<path d="M132.75 53.816C132.196 55.4587 131.236 56.792 129.87 57.816C128.505 58.8187 126.884 59.32 125.006 59.32C123.342 59.32 121.87 58.9573 120.59 58.232C119.332 57.4853 118.361 56.4827 117.678 55.224C116.996 53.9653 116.654 52.5893 116.654 51.096C116.654 49.3253 116.985 47.7893 117.646 46.488C118.329 45.1867 119.289 44.1947 120.526 43.512C121.785 42.808 123.257 42.456 124.942 42.456C126.414 42.456 127.79 42.8293 129.07 43.576C130.372 44.3227 131.396 45.3787 132.142 46.744C132.91 48.1093 133.273 49.6773 133.23 51.448L120.558 51.48C120.558 52.1627 120.761 52.8347 121.166 53.496C121.572 54.136 122.116 54.6693 122.798 55.096C123.481 55.5227 124.217 55.736 125.006 55.736C126.03 55.736 126.83 55.576 127.406 55.256C127.982 54.9147 128.462 54.4347 128.846 53.816H132.75ZM129.038 48.856C128.74 48.0027 128.228 47.32 127.502 46.808C126.777 46.296 125.924 46.04 124.942 46.04C123.94 46.04 123.065 46.296 122.318 46.808C121.593 47.32 121.102 48.0027 120.846 48.856H129.038Z" fill="black"/>
<path d="M138.244 59C137.454 59 136.868 58.872 136.484 58.616C136.1 58.36 135.854 57.9973 135.748 57.528C135.641 57.0587 135.588 56.376 135.588 55.48V46.36H133.092V42.776H135.588V37.88H139.492V42.776H144.356V46.36H139.492V55.416H144.452V59H138.244Z" fill="black"/>
<path d="M161.869 59C161.079 59 160.493 58.872 160.109 58.616C159.725 58.36 159.479 57.9973 159.373 57.528C159.266 57.0587 159.213 56.376 159.213 55.48V46.36H156.717V42.776H159.213V37.88H163.117V42.776H167.981V46.36H163.117V55.416H168.077V59H161.869Z" fill="black"/>
<path d="M177.04 59.544C175.354 59.544 173.872 59.1813 172.592 58.456C171.312 57.7093 170.32 56.696 169.616 55.416C168.933 54.1147 168.592 52.6427 168.592 51C168.592 49.3787 168.933 47.9173 169.616 46.616C170.298 45.3147 171.269 44.3013 172.528 43.576C173.786 42.8293 175.248 42.456 176.912 42.456C178.576 42.456 180.026 42.8293 181.264 43.576C182.522 44.3013 183.493 45.3147 184.176 46.616C184.858 47.9173 185.2 49.3787 185.2 51C185.2 52.6213 184.869 54.0827 184.208 55.384C183.546 56.6853 182.597 57.7093 181.36 58.456C180.122 59.1813 178.682 59.544 177.04 59.544ZM172.496 51C172.496 52.4293 172.89 53.6133 173.68 54.552C174.469 55.4907 175.514 55.96 176.816 55.96C178.16 55.96 179.237 55.5013 180.048 54.584C180.88 53.6453 181.296 52.4507 181.296 51C181.296 49.5493 180.88 48.3653 180.048 47.448C179.237 46.5093 178.16 46.04 176.816 46.04C175.514 46.04 174.469 46.5093 173.68 47.448C172.89 48.3867 172.496 49.5707 172.496 51Z" fill="black"/>
<path d="M201.371 37.88V44.856L208.571 37.88H213.723L203.771 47.608H210.555C211.408 47.608 212.059 47.704 212.507 47.896C212.976 48.0667 213.307 48.376 213.499 48.824C213.691 49.272 213.787 49.9333 213.787 50.808V59H209.883V51.192H201.371V59H197.467V37.88H201.371Z" fill="black"/>
<path d="M214.936 42.776H218.84V45.336C219.245 44.4613 219.885 43.768 220.76 43.256C221.656 42.7227 222.669 42.456 223.8 42.456C225.976 42.456 227.64 43.2133 228.792 44.728C229.965 46.2427 230.552 48.2907 230.552 50.872V59H226.648V50.872C226.648 49.1227 226.328 47.8853 225.688 47.16C225.069 46.4133 224.088 46.04 222.744 46.04C221.592 46.04 220.642 46.4347 219.896 47.224C219.17 48.0133 218.808 49.2293 218.808 50.872L218.84 59H214.936V42.776Z" fill="black"/>
<path d="M240.165 59.544C238.479 59.544 236.997 59.1813 235.717 58.456C234.437 57.7093 233.445 56.696 232.741 55.416C232.058 54.1147 231.717 52.6427 231.717 51C231.717 49.3787 232.058 47.9173 232.741 46.616C233.423 45.3147 234.394 44.3013 235.653 43.576C236.911 42.8293 238.373 42.456 240.037 42.456C241.701 42.456 243.151 42.8293 244.389 43.576C245.647 44.3013 246.618 45.3147 247.301 46.616C247.983 47.9173 248.325 49.3787 248.325 51C248.325 52.6213 247.994 54.0827 247.333 55.384C246.671 56.6853 245.722 57.7093 244.485 58.456C243.247 59.1813 241.807 59.544 240.165 59.544ZM235.621 51C235.621 52.4293 236.015 53.6133 236.805 54.552C237.594 55.4907 238.639 55.96 239.941 55.96C241.285 55.96 242.362 55.5013 243.173 54.584C244.005 53.6453 244.421 52.4507 244.421 51C244.421 49.5493 244.005 48.3653 243.173 47.448C242.362 46.5093 241.285 46.04 239.941 46.04C238.639 46.04 237.594 46.5093 236.805 47.448C236.015 48.3867 235.621 49.5707 235.621 51Z" fill="black"/>
<path d="M252.09 42.776L254.394 53.272L257.562 42.776H260.73L264.41 53.272L266.202 42.776H270.106L266.874 59H262.97L259.258 48.76L255.61 59H251.738L248.186 42.776H252.09Z" fill="black"/>
<path d="M292.229 59.32C289.157 59.32 286.746 58.488 284.997 56.824C283.248 55.1387 282.373 52.3333 282.373 48.408V37.88H286.277V48.408C286.277 51.0747 286.8 52.9627 287.845 54.072C288.89 55.1813 290.352 55.736 292.229 55.736C294.128 55.736 295.568 55.16 296.549 54.008C297.552 52.8347 298.053 50.968 298.053 48.408V37.88H301.957V48.408C301.957 52.3333 301.125 55.1387 299.461 56.824C297.818 58.488 295.408 59.32 292.229 59.32Z" fill="black"/>
<path d="M307.027 53.496C307.134 54.3707 307.411 54.968 307.859 55.288C308.328 55.5867 309.054 55.736 310.035 55.736C310.824 55.736 311.379 55.6613 311.699 55.512C312.04 55.3413 312.211 55.0107 312.211 54.52C312.211 54.0293 311.998 53.6667 311.571 53.432C311.166 53.176 310.387 52.9093 309.235 52.632C307.358 52.1627 305.886 51.5653 304.819 50.84C303.752 50.0933 303.219 48.9627 303.219 47.448C303.219 45.784 303.784 44.5467 304.915 43.736C306.046 42.904 307.443 42.488 309.107 42.488C310.6 42.488 311.987 42.8933 313.267 43.704C314.568 44.4933 315.454 45.9227 315.923 47.992H312.019C311.87 47.352 311.571 46.872 311.123 46.552C310.675 46.232 310.035 46.072 309.203 46.072C308.414 46.072 307.838 46.1893 307.475 46.424C307.134 46.6373 306.963 46.968 306.963 47.416C306.963 47.8853 307.23 48.2693 307.763 48.568C308.318 48.8667 309.171 49.1547 310.323 49.432C312.094 49.8587 313.47 50.4347 314.451 51.16C315.432 51.864 315.934 52.9413 315.955 54.392C315.955 55.9493 315.422 57.1653 314.355 58.04C313.31 58.8933 311.976 59.32 310.355 59.32C308.627 59.32 307.048 58.9467 305.619 58.2C304.211 57.4533 303.379 55.8853 303.123 53.496H307.027Z" fill="black"/>
<path d="M317.668 37.88H321.572V53.688H317.668V37.88ZM317.092 56.664C317.092 56.0027 317.316 55.448 317.764 55C318.233 54.5307 318.841 54.296 319.588 54.296C320.377 54.296 321.006 54.52 321.476 54.968C321.945 55.416 322.18 55.9813 322.18 56.664C322.18 57.3253 321.934 57.88 321.444 58.328C320.953 58.776 320.334 59 319.588 59C318.841 59 318.233 58.776 317.764 58.328C317.316 57.88 317.092 57.3253 317.092 56.664Z" fill="black"/>
</g>
</svg>
